<?xml version="1.0" encoding="utf-8"?>
<!-- Generator: Adobe Illustrator 24.1.2, SVG Export Plug-In . SVG Version: 6.00 Build 0)  -->
<svg version="1.1" id="Layer_1" xmlns="http://www.w3.org/2000/svg" xmlns:xlink="http://www.w3.org/1999/xlink" x="0px" y="0px"
	 viewBox="0 0 196 162.1" style="enable-background:new 0 0 196 162.1;" xml:space="preserve">
<style type="text/css">
	.st0{fill:#1D428A;}
</style>
<path class="st0" d="M96.8,73.7v79.8H8.4V65.3h79.8v-8.4H0v105.3h105.3V73.9h-8.4V73.7z M96.8,0v65.3H145v-8.4h-39.8V8.4h48.2v39.8
	h8.4V0H96.8z M153.5,56.6v25.5h8.4V65.3h25.5v25.5h-16.9v8.4H196V56.6H153.5z M130.5,90.6v31.4h31.4V90.6H130.5z M174.1,10h-1
	l-1.6-2.9h-1.6V10h-0.8V2.9h2.4c1.8,0,2.2,1,2.2,2s-0.6,1.6-1.4,2L174.1,10z M171.1,6.3c1,0,1.6-0.4,1.6-1.4s-0.6-1.2-1.6-1.2h-1.2
	v2.5H171.1z M171.3,12.7c-3.5,0-6.3-2.9-6.3-6.3c0-3.5,2.9-6.3,6.3-6.3c3.3,0,6.3,2.9,6.3,6.3C177.6,10,174.8,12.7,171.3,12.7z
	 M171.3,0.8c-3.1,0-5.7,2.5-5.7,5.7c0,3.1,2.5,5.7,5.7,5.7c3.1,0,5.7-2.5,5.7-5.7C177,3.3,174.4,0.8,171.3,0.8z"/>
</svg>
